<svg id="About-1" xmlns="http://www.w3.org/2000/svg" width="99" height="99" viewBox="0 0 99 99">
  <rect id="Rectangle_5523" data-name="Rectangle 5523" width="99" height="99" fill="rgba(255,255,255,0)"/>
  <g id="Group_80870" data-name="Group 80870" transform="translate(-112.465 -127.074)">
    <path id="Path_27635" data-name="Path 27635" d="M139.843,214.385a10.042,10.042,0,0,1-3.581-1.442,8.037,8.037,0,0,1-3.5-6.8q-.024-10.891-.008-21.782,0-14.14,0-28.28A8.125,8.125,0,0,1,139,147.988a20.062,20.062,0,0,1,4.483-.212.9.9,0,0,0,.891-.456,5.624,5.624,0,0,1,4.972-2.789c1.6-.032,3.2-.022,4.8.007.486.009.688-.122.75-.629a5.712,5.712,0,0,1,5.452-5.139,5.831,5.831,0,0,1,5.883,4.512c.1.4-.142.976.255,1.161a3.505,3.505,0,0,0,1.381.078c1.28.007,2.56-.006,3.84.008a5.71,5.71,0,0,1,5.153,2.872.771.771,0,0,0,.788.374,20.572,20.572,0,0,1,4.483.2,7.97,7.97,0,0,1,6.262,7.618c.092,5.635.029,11.272.039,16.908,0,.491-.179.721-.692.713-1.058-.016-2.117-.025-3.174.009-.585.019-.781-.223-.779-.78q.017-5.02.005-10.041c0-2.239.058-4.482-.055-6.715a3.4,3.4,0,0,0-3.537-3.321c-.221-.008-.444.013-.664,0-1.32-.107-2.369-.016-3.181,1.428a4.865,4.865,0,0,1-4.487,2.24c-7.507.012-15.014.028-22.521,0a5.538,5.538,0,0,1-5.187-3.165.783.783,0,0,0-.848-.5c-.589.03-1.181.012-1.772.012-2.807,0-4.157,1.328-4.168,4.16-.017,4.578-.007,9.156-.007,13.734q0,17.684,0,35.368a4.705,4.705,0,0,0,.393,2.153,3.566,3.566,0,0,0,3.5,1.992h28.28c3.47,0,6.941.013,10.411,0a3.536,3.536,0,0,0,3.834-3.733,15.748,15.748,0,0,0-.007-1.7c-.056-.71.217-.966.93-.931,1.007.05,2.018.025,3.027.016.358,0,.675.061.684.478.04,1.991.134,3.994-.8,5.85a7.954,7.954,0,0,1-5.936,4.485,1.67,1.67,0,0,0-.329.135Zm20.8-67.637a2.19,2.19,0,0,0,2.164-2.225,2.227,2.227,0,0,0-2.271-2.215,2.279,2.279,0,0,0-2.188,2.24A2.256,2.256,0,0,0,160.64,146.747Z" fill="#1b1f31"/>
    <path id="Path_27636" data-name="Path 27636" d="M347.549,356.973c-2.165,0-4.332-.057-6.5.014a4.06,4.06,0,0,1-4.422-4.427c.093-4.354.025-8.711.028-13.066,0-2.759,1.535-4.293,4.291-4.294q5.131,0,10.262,0c.3,0,.682-.127.857.25.157.338-.156.54-.327.758-.818,1.045-1.659,2.073-2.476,3.12a1.068,1.068,0,0,1-.94.447c-2.141-.018-4.282.013-6.422-.021-.565-.009-.687.163-.684.7q.036,5.647,0,11.295c0,.5.113.686.645.683q5.721-.029,11.442,0c.513,0,.616-.21.6-.665-.028-.934-.009-1.87-.014-2.805a1.193,1.193,0,0,1,.248-.819c1.147-1.412,2.274-2.84,3.415-4.258.148-.185.3-.445.588-.354s.3.362.3.617c-.039,3.124.111,6.251-.069,9.372a3.528,3.528,0,0,1-3.448,3.384c-2.458.073-4.92.018-7.38.018Z" transform="translate(-163.725 -157.738)" fill="#df9951"/>
    <path id="Path_27637" data-name="Path 27637" d="M203.583,262.352H188.451c-1.3,0-1.886-.372-2.117-1.359a1.6,1.6,0,0,1,1.171-1.917,4.17,4.17,0,0,1,.947-.11q15.168-.011,30.336-.007c1.512,0,2.364.939,2.02,2.174a1.642,1.642,0,0,1-1.728,1.2c-2.312.02-4.625.012-6.938.013Q207.864,262.354,203.583,262.352Z" transform="translate(-42.995 -96.524)" fill="#1b1f31"/>
    <path id="Path_27638" data-name="Path 27638" d="M203.461,294.4q-7.6,0-15.2,0c-1.027,0-1.644-.352-1.909-1.074a1.692,1.692,0,0,1,1.539-2.3,9.28,9.28,0,0,1,1.106-.02h29.669c1.111,0,1.795.365,2.064,1.094a1.694,1.694,0,0,1-1.767,2.3c-2.312.017-4.625.008-6.937.009Q207.741,294.4,203.461,294.4Z" transform="translate(-42.944 -122.254)" fill="#1b1f31"/>
    <path id="Path_27639" data-name="Path 27639" d="M367.8,332.56a1.9,1.9,0,0,1,1.584.782c.485.65,1,1.28,1.449,1.953.329.493.532.477.9.017,2.974-3.76,5.971-7.5,8.954-11.254a2.247,2.247,0,0,1,1.806-1.1,1.758,1.758,0,0,1,1.68.991,1.882,1.882,0,0,1-.237,2.136q-1.694,2.14-3.4,4.269-3.726,4.668-7.453,9.337c-.609.764-1.269,1.386-2.367,1.081a1.871,1.871,0,0,1-1.018-.689c-1.124-1.492-2.255-2.979-3.351-4.491a1.931,1.931,0,0,1,.228-2.6A1.7,1.7,0,0,1,367.8,332.56Z" transform="translate(-187.265 -147.917)" fill="#df9951"/>
    <path id="Path_27640" data-name="Path 27640" d="M194.7,428.834c2.213,0,4.425-.013,6.638.006a1.642,1.642,0,0,1,1.8,1.631,1.587,1.587,0,0,1-1.288,1.643,3.726,3.726,0,0,1-.8.1q-6.379,0-12.759-.007a1.863,1.863,0,0,1-1.981-1.1,1.62,1.62,0,0,1,1.53-2.261c2.285-.048,4.572-.014,6.858-.014Z" transform="translate(-42.906 -232.939)" fill="#1b1f31"/>
  </g>
</svg>
