<svg id="About-2" xmlns="http://www.w3.org/2000/svg" width="99" height="99" viewBox="0 0 99 99">
  <rect id="Rectangle_5523" data-name="Rectangle 5523" width="99" height="99" fill="rgba(255,255,255,0)"/>
  <g id="Group_80871" data-name="Group 80871" transform="translate(-167.128 -184.139)">
    <path id="Path_27641" data-name="Path 27641" d="M354.622,241.81c-2.13,2.756-4.393,2.757-6.437,0-3.332-4.488-3.371-11.5-.088-15.858,2.42-3.211,4.391-3.148,6.526.21v1.2c-.872,1.756-2.4,3.126-2.838,5.153-.712,3.308,1.129,5.66,2.838,8.085Z" transform="translate(-100.515 -14.024)" fill="#df9951"/>
    <path id="Path_27642" data-name="Path 27642" d="M206.167,324.133q-10.728,0-21.457,0c-4.473-.008-6.813-2.338-6.808-6.778,0-4.21-.283-8.453.136-12.624A17.216,17.216,0,0,1,191.818,289.4a82.8,82.8,0,0,1,28.281-.048,18,18,0,0,1,14.493,18.354c-.14,3.136-.016,6.283-.023,9.424-.011,4.811-2.175,7-6.945,7Q216.9,324.142,206.167,324.133Zm-.051-7.527c-2.677-4.808-5.894-8.929-2.608-14.241a10.441,10.441,0,0,0,.833-2.448,1.327,1.327,0,0,0-.206-1.464c-2.135-2.4-4.241-4.78-7.988-3.623a6.572,6.572,0,0,1-1.2.1c-5.712.625-10.277,4.834-10.778,10.388-.329,3.647-.093,7.342-.152,11.016-.018,1.148.708,1.064,1.465,1.064q20.55-.005,41.1.02c1.139,0,1.5-.332,1.465-1.469a80.307,80.307,0,0,1,.01-8.217c.576-7.551-6.341-12.354-11.954-12.83-2.962-.25-5.966-.763-7.8,2.638-.467.865-.948,1.432-.559,2.472.815,2.179,1.506,4.4,2.224,6.618a2.348,2.348,0,0,1,.174,1.928C208.859,311.1,207.592,313.65,206.116,316.606Z" transform="translate(0 -52.687)" fill="#1b1f31"/>
    <path id="Path_27643" data-name="Path 27643" d="M240.743,216.59a15.84,15.84,0,0,1-16.227,16,16.2,16.2,0,1,1,16.227-16Zm-16.066-10.13a9.909,9.909,0,0,0-10.026,9.6A10.057,10.057,0,0,0,224.6,226.4a10.238,10.238,0,0,0,10.041-9.958A10.127,10.127,0,0,0,224.678,206.46Z" transform="translate(-18.325 0)" fill="#1b1f31"/>
    <path id="Path_27644" data-name="Path 27644" d="M311.943,218.873c.107-5.889,2.73-11.86,7.4-16.973,1.625-1.779,3.608-2.056,4.93-.827,1.428,1.329,1.265,3.376-.407,5.1a19.611,19.611,0,0,0-.091,27.752c2.211,2.325,1.929,4.838-.643,5.768-1.487.538-2.572-.136-3.555-1.154C314.581,233.359,311.929,227.221,311.943,218.873Z" transform="translate(-80.324 -0.086)" fill="#df9951"/>
  </g>
</svg>
