<svg id="About-3" xmlns="http://www.w3.org/2000/svg" width="99" height="99" viewBox="0 0 99 99">
  <rect id="Rectangle_5523" data-name="Rectangle 5523" width="99" height="99" fill="rgba(255,255,255,0)"/>
  <g id="Group_80872" data-name="Group 80872" transform="translate(59.715 -271.307)">
    <path id="Subtraction_3" data-name="Subtraction 3" d="M14680.276,19347.074h0a14.168,14.168,0,0,1-5.257-.965,11.885,11.885,0,0,1-6.785-6.809,14.2,14.2,0,0,1-.941-5.256c.02-5.943.033-11.754-.01-17.484a1.317,1.317,0,0,1,.256-.982,1.335,1.335,0,0,1,.99-.264l.021,0c3.094.018,6.285.023,10.35.023h2.588l2.588,0q2.588,0,5.179,0v0h2.436q1.216,0,2.434,0l2.435,0H14699c2.637,0,6.617,0,10.716-.027l.057,0c.674,0,1.071.115,1.286.369a1.352,1.352,0,0,1,.162,1.133,2.45,2.45,0,0,0-.011.479,3.066,3.066,0,0,1,0,.391.812.812,0,0,0,.115.629.485.485,0,0,0,.373.125,1.812,1.812,0,0,0,.361-.041c1.6-.312,3.719-.709,5.86-.986a8.1,8.1,0,0,1,.99-.064,5.939,5.939,0,0,1,4.78,2.176,5.8,5.8,0,0,1,.882,5.119,26.9,26.9,0,0,1-4.579,10.221c-2.332,2.939-4.755,4.309-7.626,4.309a9.459,9.459,0,0,1-.953-.051c-.084-.008-.152-.01-.213-.01-.659,0-.972.365-1.264.953a12.779,12.779,0,0,1-4.461,5.229,12.1,12.1,0,0,1-6.647,1.787h-.171c-2.082-.021-4.328-.029-6.865-.029-2.049,0-4.14.006-6.162.014l-1.064,0q-.712,0-1.424,0l-2.833.008Zm11.177-7.166c1.7,0,3.26.008,4.778.021h.1a8.077,8.077,0,0,0,7.682-4.365,29.868,29.868,0,0,0,1.237-6.588,40.9,40.9,0,0,0-.359-7.338,1.948,1.948,0,0,0,0-.227,1.337,1.337,0,0,1,.01-.312.807.807,0,0,0-.1-.682c-.146-.176-.422-.25-.921-.25h-.026c-2.826.018-7.271.021-10.5.021-2.109,0-3.616,0-3.616,0h-1.554l-1.554,0h-3.109c-2.389,0-5.216,0-8.078-.018h-.028a.937.937,0,0,0-.684.176.812.812,0,0,0-.162.6c.029,3.65.02,7.225,0,10.871a7.661,7.661,0,0,0,2.213,5.566,9.39,9.39,0,0,0,6.751,2.543h.023l1.4,0,1.41-.006C14687.858,19339.916,14689.7,19339.908,14691.453,19339.908Zm27.294-17.25a4.326,4.326,0,0,0-.714.074c-.792.133-1.581.275-2.523.447l-.076.014c-1.109.2-2.256.408-3.388.582-.647.1-.864.373-.859,1.068.041,3.219.043,5.668,0,7.939a1.256,1.256,0,0,0,.234.924.675.675,0,0,0,.507.178,1.95,1.95,0,0,0,.376-.043,2.1,2.1,0,0,0,.262.016,2.911,2.911,0,0,0,1.889-.865,8.883,8.883,0,0,0,2.5-3.2c.809-1.867,1.571-3.762,2.268-5.631.25-.674.3-1.068.146-1.283C14719.27,19322.727,14719.07,19322.658,14718.747,19322.658Z" transform="translate(-14700.971 -19000.266)" fill="#1b1f31" stroke="rgba(0,0,0,0)" stroke-miterlimit="10" stroke-width="1"/>
    <path id="Path_27646" data-name="Path 27646" d="M-10.127,544.183q17.8,0,35.606.009c.386,0,.924-.21,1.124.24.155.348-.253.671-.469.957a17.676,17.676,0,0,1-4.578,4.136,5.217,5.217,0,0,1-2.956.745q-19.541-.024-39.082-.019c-6.079,0-12.16-.06-18.237.05a7.406,7.406,0,0,1-5.023-2.034,16.527,16.527,0,0,1-2.94-3.008c-.183-.252-.512-.536-.334-.872s.6-.208.912-.209q5.707-.018,11.414-.01h24.564Z" transform="translate(0 -194.34)" fill="#1b1f31"/>
    <path id="Path_27647" data-name="Path 27647" d="M59.717,311.292c-2.111-2.116-3.937-4.37-4.59-7.354a4.887,4.887,0,0,1,1.462-5.1c3.561-2.97,3.7-6.989,1.865-11.146-.3-.671-.621-1.33-.955-2.043,2.45,1.141,6.127,5.779,6.6,8.318a4.793,4.793,0,0,1-1.858,4.816,9.383,9.383,0,0,0-3.524,8.2A20.679,20.679,0,0,0,59.717,311.292Z" transform="translate(-76.704)" fill="#df9951"/>
    <path id="Path_27648" data-name="Path 27648" d="M107.512,285.721c2.733,2.117,5.138,4.455,6.237,7.8a4.186,4.186,0,0,1-1.151,4.767c-4.111,3.567-4.853,7.844-2.924,12.765.024.062-.017.149-.065.482-2.356-2.791-4.518-5.457-4.515-9.185a4.529,4.529,0,0,1,1.495-3.438c3.616-3.215,3.489-7.028,1.881-11.1C108.19,287.1,107.833,286.417,107.512,285.721Z" transform="translate(-114.399 -0.052)" fill="#df9951"/>
  </g>
</svg>
