<svg id="About-4" xmlns="http://www.w3.org/2000/svg" width="99" height="99" viewBox="0 0 99 99">
  <rect id="Rectangle_5523" data-name="Rectangle 5523" width="99" height="99" fill="rgba(255,255,255,0)"/>
  <g id="Group_80873" data-name="Group 80873" transform="translate(-148.721 -12.219)">
    <path id="Path_27650" data-name="Path 27650" d="M249.8,170.092c1.663-2.88,3.24-5.615,4.821-8.349.788-1.362,1.244-1.534,2.678-.931,8.178,3.44,13.7,9.23,15.857,17.98.391,1.585-.142,2.264-1.8,2.265q-26.175.006-52.351,0c-1.624,0-2.147-.693-1.747-2.306,2.2-8.874,7.859-14.666,16.171-18.071,1.049-.43,1.618-.2,2.22.833,1.469,2.525,2.922,5.06,4.384,7.589.165.286.351.561.6.964.9-1.555,1.725-3.011,2.58-4.449.211-.354.021-.586-.125-.847-.334-.6-.7-1.183-1.015-1.794-.379-.742-.176-1.162.611-1.178,1.686-.035,3.373-.02,5.059,0,.707.007.892.413.667,1.04a1.353,1.353,0,0,1-.253.447c-1.237,1.366-1.088,2.677.008,4.077A24.72,24.72,0,0,1,249.8,170.092Z" transform="translate(-46.982 -107.548)" fill="#1b1f31"/>
    <path id="Subtraction_4" data-name="Subtraction 4" d="M14485.425,19082.025h-.006a10.31,10.31,0,0,1-5.069-1.354,11.845,11.845,0,0,1-4.161-4.027,16.881,16.881,0,0,1-2.467-9.07,11.253,11.253,0,0,1,3.073-7.594,11.918,11.918,0,0,1,3.363-2.576,10.436,10.436,0,0,1,4.086-1.152c.319-.021.634-.033.936-.033a12.209,12.209,0,0,1,7.979,2.854,11.134,11.134,0,0,1,2.587,3.238,11.712,11.712,0,0,1,1.276,4.156,14.88,14.88,0,0,1-2.787,10.82A10.95,10.95,0,0,1,14485.425,19082.025Zm-.18-22.18c-.229,0-.447.006-.666.021a8.4,8.4,0,0,0-7.566,8.143,12.1,12.1,0,0,0,1.771,6.518,7.613,7.613,0,0,0,12.975.465,10.718,10.718,0,0,0,2.007-7.783A8.275,8.275,0,0,0,14485.245,19059.846Z" transform="translate(-14287.227 -19031.297)" fill="#1b1f31" stroke="rgba(0,0,0,0)" stroke-miterlimit="10" stroke-width="1"/>
    <path id="Path_27652" data-name="Path 27652" d="M161.229,301.092c3.661-.046,3.063.467,4.2-3.063.222-.686.456-1.367.684-2.05a1.107,1.107,0,0,1,2.16.02c.39,1.208.857,2.4,1.176,3.622a1.7,1.7,0,0,0,1.978,1.486c1.235-.07,2.478,0,3.717-.025a1.162,1.162,0,0,1,1.295.787,1.121,1.121,0,0,1-.568,1.313c-1,.729-1.962,1.521-3.01,2.176a1.69,1.69,0,0,0-.763,2.418c.471,1.138.753,2.352,1.157,3.52a1.094,1.094,0,0,1-.364,1.373,1.117,1.117,0,0,1-1.427-.082c-1.113-.809-2.238-1.6-3.334-2.434a1.352,1.352,0,0,0-1.86,0c-1.061.819-2.168,1.58-3.25,2.373a1.2,1.2,0,0,1-1.516.15,1.15,1.15,0,0,1-.345-1.473c.408-1.2.743-2.431,1.182-3.622a1.556,1.556,0,0,0-.65-2.115c-1.063-.7-2.062-1.492-3.1-2.226a1.209,1.209,0,0,1-.625-1.394c.184-.637.69-.783,1.3-.761C159.92,301.11,160.575,301.092,161.229,301.092Z" transform="translate(0 -214.377)" fill="#df9951"/>
    <path id="Path_27653" data-name="Path 27653" d="M311.135,301.085c3.7-.036,3.069.441,4.212-3.051.224-.685.445-1.371.675-2.053a1.112,1.112,0,0,1,2.169,0c.428,1.3.869,2.605,1.266,3.919a1.5,1.5,0,0,0,1.668,1.2c1.272-.038,2.547.009,3.82-.017.64-.013,1.183.1,1.406.771.228.7-.221,1.083-.715,1.44-1.059.766-2.109,1.545-3.174,2.3a1.349,1.349,0,0,0-.575,1.77c.464,1.254.835,2.542,1.256,3.813a1.148,1.148,0,0,1-1.832,1.355c-1.052-.776-2.133-1.514-3.165-2.315a1.445,1.445,0,0,0-2.034-.02c-.941.749-1.939,1.427-2.91,2.139-.538.394-1.092.814-1.77.348s-.475-1.122-.26-1.766c.392-1.172.739-2.358,1.144-3.525a1.419,1.419,0,0,0-.613-1.857c-1.055-.711-2.063-1.491-3.1-2.224-.552-.389-.939-.844-.685-1.554.227-.635.777-.693,1.36-.674C309.9,301.1,310.516,301.085,311.135,301.085Z" transform="translate(-118.946 -214.37)" fill="#df9951"/>
    <path id="Path_27654" data-name="Path 27654" d="M461.512,301.091c3.68-.027,3,.38,4.148-3.01.242-.715.467-1.436.712-2.15a1.1,1.1,0,0,1,2.124.017c.385,1.174.773,2.346,1.155,3.521.506,1.557.588,1.619,2.27,1.621,1.17,0,2.341.011,3.511-.006a1.089,1.089,0,0,1,1.215.737,1.138,1.138,0,0,1-.509,1.343c-1.115.806-2.205,1.648-3.346,2.416a1.386,1.386,0,0,0-.584,1.779c.413,1.273.815,2.551,1.247,3.818a1.148,1.148,0,0,1-1.828,1.359c-1-.737-2.032-1.422-2.993-2.2a1.615,1.615,0,0,0-2.372-.015c-.863.732-1.83,1.341-2.743,2.016-.54.4-1.085.812-1.766.347-.747-.511-.462-1.189-.238-1.852.384-1.138.725-2.292,1.134-3.421a1.419,1.419,0,0,0-.613-1.858c-1.075-.744-2.115-1.538-3.179-2.3-.479-.341-.874-.734-.686-1.363a1.178,1.178,0,0,1,1.379-.811C460.2,301.12,460.858,301.091,461.512,301.091Z" transform="translate(-238.184 -214.376)" fill="#df9951"/>
  </g>
</svg>
